<svg t="1773229014342" class="icon" viewBox="0 0 1024 1024" version="1.1" xmlns="http://www.w3.org/2000/svg" p-id="1916" width="200" height="200"><path d="M758.525774 663.678887a106.106435 106.106435 0 0 1-5.790052-12.060939 107.945183 107.945183 0 0 1-1.976765-5.226852 106.442574 106.442574 0 0 1-1.515966-4.783861c-0.200348-0.681183-0.373983-1.362365-0.558748-2.043548-0.242643-0.894887-0.485287-1.789774-0.703443-2.689113a111.593739 111.593739 0 0 1-0.596591-2.629009 107.78713 107.78713 0 0 1-0.9728-5.042087c-0.037843-0.233739-0.089043-0.465252-0.126887-0.698991l-93.010365 32.075687v74.731965l108.181147-66.686887a110.6432 110.6432 0 0 1-2.92953-4.946365zM529.650643 511.452383c-0.276035 0.048974-0.554296 0.082365-0.828104 0.129113a100.634713 100.634713 0 0 1-4.790539 0.685634c-0.865948 0.1024-1.734122 0.2048-2.606748 0.28494-0.75687 0.071235-1.515965 0.120209-2.275061 0.173634-0.823652 0.057878-1.645078 0.124661-2.475408 0.162505-0.952765 0.044522-1.907757 0.055652-2.862748 0.073461-0.605496 0.01113-1.204313 0.046748-1.812035 0.046747s-1.206539-0.035617-1.812035-0.046747c-0.954991-0.017809-1.909983-0.028939-2.862748-0.073461-0.83033-0.037843-1.651757-0.104626-2.475408-0.162505-0.759096-0.053426-1.518191-0.1024-2.275061-0.173634-0.872626-0.080139-1.738574-0.182539-2.606748-0.28494a90.054122 90.054122 0 0 1-4.790539-0.685634c-0.276035-0.046748-0.554296-0.080139-0.828104-0.129113l-3.666366 64.311652h42.634018l-3.666366-64.311652zM512.752417 310.585878c1.362365 0.008904 2.722504 0.037843 4.078192 0.1024 0.725704 0.033391 1.442504 0.095722 2.16153 0.144696 0.877078 0.060104 1.756383 0.117983 2.629009 0.200348 0.832557 0.077913 1.656209 0.180313 2.482087 0.278261 0.750191 0.09127 1.502609 0.180313 2.250574 0.287165 0.8704 0.124661 1.736348 0.264904 2.600069 0.411826 0.385113 0.064557 0.772452 0.11353 1.155339 0.182539l-6.622608-149.009809L512 116.137183l-11.486609 47.0528-6.622608 149.009808c0.380661-0.069009 0.763548-0.117983 1.146434-0.182539 0.868174-0.146922 1.738574-0.289391 2.613426-0.414052 0.743513-0.106852 1.489252-0.19367 2.237218-0.284939 0.828104-0.097948 1.656209-0.202574 2.493217-0.280487 0.8704-0.082365 1.745252-0.140243 2.620105-0.198122 0.723478-0.048974 1.442504-0.11353 2.170434-0.146922a99.312417 99.312417 0 0 1 4.075966-0.1024c0.251548-0.002226 0.50087-0.020035 0.754643-0.020034 0.249322-0.002226 0.498643 0.015583 0.750191 0.015582z" fill="#CCCCCC" p-id="1917"></path><path d="M512 468.482226c31.263165 0 56.696209-25.433043 56.696209-56.696209s-25.433043-56.698435-56.696209-56.698434-56.696209 25.43527-56.696209 56.698434 25.433043 56.696209 56.696209 56.696209z" fill="#999999" p-id="1918"></path><path d="M927.390052 286.049948l6.2976 18.260591c1.602783 4.652522 1.622817 9.701287 0.0512 14.362713l-63.510261 188.571826a106.179896 106.179896 0 0 1 46.603131 21.016487l51.716452-189.077148-41.158122-53.134469z" fill="#CCCCCC" p-id="1919"></path><path d="M1010.554435 320.70567l-130.604522-168.594922a22.263096 22.263096 0 0 0-38.642643 20.891826l47.816347 138.651826-66.631234 197.843478c-1.992348 0.560974-3.978017 1.159791-5.945879 1.838748-33.13753 11.42873-56.998957 37.721043-66.738087 68.857322l-96.53426 33.293356v-15.460174c0-12.292452-9.966191-22.26087-22.26087-22.260869h-53.103304l-4.754922-83.391444c24.322226-18.505461 40.060661-47.736209 40.060661-80.584347 0-31.73287-14.689948-60.088765-37.614192-78.661009l-7.735652-174.088904c-0.008904-0.220383-0.044522-0.436313-0.060104-0.65447a22.23193 22.23193 0 0 0-0.1024-1.095235 22.133983 22.133983 0 0 0-0.1536-1.010643 21.461704 21.461704 0 0 0-0.233739-1.208766c-0.024487-0.106852-0.035617-0.21593-0.062331-0.322782L533.626435 16.982817C531.193322 7.012174 522.262261 0 512 0s-19.193322 7.012174-21.626435 16.982817l-33.627269 137.765844c-0.026713 0.106852-0.037843 0.21593-0.062331 0.322782-0.09127 0.39847-0.16473 0.801391-0.233739 1.208766-0.057878 0.336139-0.111304 0.670052-0.1536 1.010643-0.044522 0.362852-0.075687 0.72793-0.1024 1.095235-0.015583 0.218157-0.0512 0.434087-0.060104 0.65447l-7.735652 174.086678c-22.92647 18.572243-37.616417 46.928139-37.616418 78.663235 0 32.848139 15.738435 62.078887 40.060661 80.582121l-4.754922 83.39367h-53.103304c-12.294678 0-22.26087 9.968417-22.26087 22.260869v15.460174l-96.536487-33.293356c-9.73913-31.136278-33.600557-57.428591-66.738087-68.857322a107.66247 107.66247 0 0 0-5.945878-1.838748l-66.631235-197.843478 47.816348-138.651826a22.26087 22.26087 0 0 0-38.642643-20.891826L13.445565 320.70567a22.256417 22.256417 0 0 0-3.873391 19.5072l63.955478 233.823721c-0.387339 1.021774-0.774678 2.045774-1.133078 3.085357-9.251617 26.824348-7.501913 55.645496 4.924104 81.154226 12.426017 25.50873 34.041322 44.653078 60.86567 53.902469a106.028522 106.028522 0 0 0 34.640139 5.827896 106.012939 106.012939 0 0 0 57.4976-16.942748l140.403756 86.550261v64.434087h-0.627756c-12.294678 0-22.26087 9.968417-22.26087 22.26087s9.966191 22.26087 22.26087 22.260869h31.779617V1001.73913c0 12.292452 9.966191 22.26087 22.26087 22.26087h175.722852c12.294678 0 22.26087-9.968417 22.26087-22.26087v-105.169252h31.779617c12.294678 0 22.26087-9.968417 22.26087-22.260869s-9.966191-22.26087-22.26087-22.26087h-0.62553v-64.434087l140.403756-86.550261a106.019617 106.019617 0 0 0 57.495374 16.944974h0.008904c11.767096 0 23.420661-1.961183 34.631235-5.827895 26.824348-9.249391 48.439652-28.393739 60.86567-53.90247 12.426017-25.50873 14.175722-54.329878 4.924104-81.152a108.132174 108.132174 0 0 0-1.133078-3.085357l63.955478-233.828173a22.26087 22.26087 0 0 0-3.873391-19.5072z m-139.255096 349.386573a61.564661 61.564661 0 0 1-20.117148 3.392557h-0.004452c-26.30567-0.002226-49.748591-16.724591-58.330156-41.607791-11.092591-32.166957 6.05273-67.361391 38.215234-78.453983a61.5936 61.5936 0 0 1 20.123826-3.392556c26.30567 0 49.746365 16.722365 58.327931 41.610017 5.373774 15.580383 4.358678 32.322783-2.860522 47.139617s-19.772104 25.938365-35.354713 31.312139zM577.600557 979.478261h-131.201114v-82.908383h131.201114V979.478261zM152.700661 670.092243c-15.582609-5.373774-28.137739-16.495304-35.354713-31.312139s-8.234296-31.559235-2.860522-47.141843c8.581565-24.887652 32.022261-41.607791 58.327931-41.607791a61.662609 61.662609 0 0 1 20.123826 3.392556c32.16473 11.092591 49.307826 46.287026 38.215234 78.451757-8.583791 24.889878-32.024487 41.610017-58.32793 41.610017a61.640348 61.640348 0 0 1-20.123826-3.392557zM96.609948 286.049948l-6.2976 18.260591a22.256417 22.256417 0 0 0-0.0512 14.362713l63.510261 188.571826a106.179896 106.179896 0 0 0-46.603131 21.016487L55.451826 339.184417l41.158122-53.134469z m165.932522 382.573078c1.019548-1.607235 1.98567-3.254539 2.920626-4.924104 0.133565-0.235965 0.26713-0.47193 0.396243-0.710122a105.458643 105.458643 0 0 0 4.919652-10.197704l0.491966-1.188731a105.872696 105.872696 0 0 0 1.970086-5.211269c0.545391-1.582748 1.046261-3.181078 1.515966-4.783861 0.198122-0.67673 0.371757-1.355687 0.556521-2.034644 0.242643-0.899339 0.487513-1.798678 0.707896-2.704695 0.211478-0.868174 0.402922-1.736348 0.592139-2.606748 0.149148-0.694539 0.298296-1.389078 0.434087-2.083618 0.19367-0.988383 0.373983-1.974539 0.538713-2.965147 0.04007-0.235965 0.09127-0.47193 0.129113-0.707896l93.012592 32.075687v74.731965l-108.1856-66.689113z m231.806887-157.170643c0.276035 0.048974 0.554296 0.082365 0.828104 0.129113a100.634713 100.634713 0 0 0 4.790539 0.685634c0.865948 0.1024 1.734122 0.2048 2.606748 0.28494 0.75687 0.071235 1.515965 0.120209 2.275061 0.173634 0.823652 0.057878 1.645078 0.124661 2.475408 0.162505 0.952765 0.044522 1.907757 0.055652 2.862748 0.073461 0.605496 0.01113 1.204313 0.046748 1.812035 0.046747s1.206539-0.035617 1.812035-0.046747c0.954991-0.017809 1.909983-0.028939 2.862748-0.073461 0.83033-0.037843 1.651757-0.104626 2.475408-0.162505 0.759096-0.053426 1.518191-0.1024 2.275061-0.173634 0.872626-0.080139 1.738574-0.182539 2.606748-0.28494a90.054122 90.054122 0 0 0 4.790539-0.685634c0.276035-0.046748 0.554296-0.080139 0.828104-0.129113l3.666366 64.311652h-42.634018l3.666366-64.311652z m12.82226-200.761879c-0.72793 0.033391-1.446957 0.095722-2.170434 0.146922-0.874852 0.060104-1.749704 0.115757-2.620105 0.198122-0.834783 0.080139-1.662887 0.182539-2.493217 0.280487-0.745739 0.09127-1.493704 0.178087-2.237218 0.284939-0.874852 0.124661-1.745252 0.26713-2.613426 0.414052-0.380661 0.064557-0.765774 0.111304-1.146434 0.182539l6.622608-149.009808L512 116.137183l11.484383 47.0528 6.622608 149.009808c-0.382887-0.069009-0.770226-0.117983-1.155339-0.182539a98.807096 98.807096 0 0 0-2.600069-0.411826c-0.747965-0.106852-1.498157-0.195896-2.250574-0.287165-0.825878-0.097948-1.64953-0.200348-2.482087-0.278261-0.874852-0.084591-1.75193-0.140243-2.629009-0.200348-0.721252-0.048974-1.438052-0.111304-2.16153-0.144695a99.421496 99.421496 0 0 0-4.078192-0.1024c-0.251548-0.002226-0.50087-0.020035-0.752417-0.020035-0.253774 0-0.50087 0.017809-0.754644 0.020035-1.357913 0.004452-2.718052 0.033391-4.071513 0.097947z m-51.867826 101.095513c0-31.263165 25.433043-56.698435 56.696209-56.698434s56.696209 25.43527 56.696209 56.698434-25.433043 56.696209-56.696209 56.696209-56.696209-25.433043-56.696209-56.696209z m144.557635 440.262122h-110.485148V799.165217c0-12.292452-9.966191-22.26087-22.260869-22.260869s-22.26087 9.968417-22.26087 22.260869v52.882922h-29.609182V620.285774h29.609182V732.382609c0 12.292452 9.966191 22.26087 22.26087 22.260869s22.26087-9.968417 22.260869-22.260869v-112.096835h119.376139v231.762365h-8.890991z m53.414957-191.470191l93.010365-32.075687c0.037843 0.233739 0.089043 0.465252 0.126887 0.698991a107.78713 107.78713 0 0 0 1.569391 7.671096c0.218157 0.899339 0.4608 1.794226 0.703444 2.689113 0.184765 0.681183 0.3584 1.364591 0.558747 2.043548 0.469704 1.605009 0.968348 3.201113 1.515966 4.783861a105.66567 105.66567 0 0 0 2.455374 6.384417 105.854887 105.854887 0 0 0 4.935234 10.22887l0.376209 0.674504a107.319652 107.319652 0 0 0 2.931757 4.944139l-108.181148 66.686887v-74.729739z m263.557565-132.316383a106.206609 106.206609 0 0 0-46.603131-21.016487l63.510261-188.571826a22.272 22.272 0 0 0-0.0512-14.362713l-6.2976-18.260591 41.162574 53.134469-51.720904 189.077148z" p-id="1920"></path><path d="M909.514574 591.638261c-8.581565-24.889878-32.022261-41.610017-58.327931-41.610018a61.662609 61.662609 0 0 0-20.123826 3.392557c-32.16473 11.092591-49.307826 46.287026-38.215234 78.453983 8.581565 24.885426 32.024487 41.605565 58.330156 41.607791h0.004452c6.818504 0 13.585809-1.141983 20.117148-3.392557 15.582609-5.373774 28.137739-16.495304 35.354713-31.312139s8.234296-31.559235 2.860522-47.139617z" fill="#999999" p-id="1921"></path><path d="M277.713252 628.502261c-0.037843 0.235965-0.089043 0.47193-0.129113 0.707896a106.33127 106.33127 0 0 1-2.272835 10.360208c-0.184765 0.678957-0.356174 1.357913-0.556521 2.034644a103.653287 103.653287 0 0 1-1.515966 4.783861 105.872696 105.872696 0 0 1-2.462052 6.4 106.767583 106.767583 0 0 1-4.919652 10.197704l-0.396243 0.710122c-0.934957 1.669565-1.901078 3.31687-2.920627 4.924104l108.183374 66.689113v-74.731965l-93.010365-32.075687zM153.769183 507.245078l-63.510261-188.571826a22.272 22.272 0 0 1 0.0512-14.362713l6.2976-18.260591-41.162574 53.134469 51.716452 189.077148a106.244452 106.244452 0 0 1 46.607583-21.016487z" fill="#CCCCCC" p-id="1922"></path><path d="M231.152417 631.874783c11.092591-32.16473-6.05273-67.359165-38.215234-78.451757a61.5936 61.5936 0 0 0-20.123826-3.392556c-26.30567 0-49.746365 16.722365-58.327931 41.607791-5.373774 15.582609-4.358678 32.325009 2.860522 47.141843s19.77433 25.938365 35.354713 31.312139a61.5936 61.5936 0 0 0 20.123826 3.392557c26.303443 0 49.744139-16.722365 58.32793-41.610017z" fill="#999999" p-id="1923"></path><path d="M608.754643 620.285774h-119.376139V732.382609c0 12.292452-9.966191 22.26087-22.260869 22.260869s-22.26087-9.968417-22.26087-22.260869v-112.096835h-29.609182v231.762365h29.609182V799.165217c0-12.292452 9.966191-22.26087 22.26087-22.260869s22.26087 9.968417 22.260869 22.260869v52.882922H608.75687V620.285774z" fill="#B3B3B3" p-id="1924"></path><path d="M446.399443 896.569878h131.201114V979.478261h-131.201114z" fill="#666666" p-id="1925"></path></svg>